<?xml version="1.0" encoding="utf-8"?>
<!-- Generator: Adobe Illustrator 20.1.0, SVG Export Plug-In . SVG Version: 6.00 Build 0)  -->
<svg version="1.1" id="Layer_1" xmlns="http://www.w3.org/2000/svg" xmlns:xlink="http://www.w3.org/1999/xlink" x="0px" y="0px"
	 viewBox="0 0 100 100" style="enable-background:new 0 0 100 100;" xml:space="preserve">
<style type="text/css">
	.st0{fill:#14B68F;}
</style>
<g>
	<path class="st0" d="M50,100C22.4,100,0,77.6,0,50S22.4,0,50,0s50,22.4,50,50S77.6,100,50,100z M50,6.4C25.9,6.4,6.4,25.9,6.4,50
		S25.9,93.6,50,93.6S93.6,74.1,93.6,50S74.1,6.4,50,6.4z"/>
	<path class="st0" d="M51,56.6c-0.3-0.8-1.5-4.9-1.5-4.9l0,0l0,0l0,0c0,0,0,0,0-0.1l0,0l0,0l0,0l0,0c0,0,0,0-0.1,0c0,0,0,0-0.1,0
		c0,0,0,0-0.1,0s0,0-0.1,0c0,0,0,0-0.1,0c0,0,0,0-0.1,0c0,0,0,0-0.1,0c0,0,0,0-0.1,0c0,0,0,0-0.1,0l0,0l0,0l0,0c0,0-3.9,1.9-4.7,2.2
		c-1.9,0.8-2.8,1.5-3.7,3.5c-0.3,0.7-0.5,1.5-0.5,2.3c-0.7-0.8-1.4-1.1-2.5-1.3c-0.6-0.1-3.3-0.8-3.3-0.8l0,0l0,0l0,0l0,0l0,0l0,0
		l0,0l0,0l0,0l0,0l0,0l0,0l0,0l0,0l0,0l0,0l0,0l0,0l0,0l0,0c0,0-0.3,2.8-0.3,3.4c-0.2,1.4-0.1,2.1,0.7,3.3c1.2,1.7,3.6,2.1,5.4,0.9
		l0.1-0.1c0.7,0.9,1.3,1.6,1.5,1.8c0,0,0,0,0,0.1v4c0,0.4,0.3,0.8,0.7,0.8s0.7-0.3,0.7-0.8v-4v-0.1c0.2-0.6,0.6-1.3,1-2.1
		c2.9,1.3,6.4-0.1,7.7-3C51.8,59.7,51.7,58.6,51,56.6z M39.3,63.8L38.6,63l0.3-2.6c0-0.2-0.1-0.3-0.3-0.3s-0.3,0.1-0.3,0.3l-0.3,2
		l-0.8-0.9l0.2-1.5c0-0.2-0.1-0.3-0.3-0.3s-0.3,0.1-0.3,0.3l-0.1,0.9l-0.8-1c-0.2-0.3-0.5-0.4-0.7-0.3s-0.2,0.4,0,0.7
		c0,0,0.2,0.3,0.6,0.7l-0.5-0.1c-0.2,0-0.3,0.1-0.4,0.2c0,0.2,0.1,0.3,0.2,0.4l1.3,0.3c0.3,0.3,0.6,0.7,0.9,1.1l-1.8-0.4
		c-0.2,0-0.3,0.1-0.4,0.2s0.1,0.3,0.2,0.4l2.6,0.5c0.2,0.2,0.4,0.5,0.6,0.7c0,0,0,0-0.1,0.1c-1.4,1-3.2,0.6-4.2-0.7
		c-0.7-0.9-0.7-1.5-0.6-2.7c0.1-0.5,0.2-2.1,0.3-2.9c0.8,0.2,2.4,0.6,2.9,0.7c1.2,0.3,1.7,0.5,2.3,1.4
		C40.2,61.3,40.1,62.8,39.3,63.8z M41.5,66.1c0,0.1-0.1,0.2-0.1,0.2l-0.1-0.1l-1.4-1.7c0.5-0.5,0.8-1.2,0.9-1.9
		c0.4,0.6,1,1.2,1.6,1.6C42,65.1,41.6,65.8,41.5,66.1z M49.8,61.2c-1,2.3-3.7,3.3-5.9,2.4c0.2-0.5,0.5-1,0.8-1.5l4-1.7
		c0.2-0.1,0.3-0.4,0.2-0.6c-0.1-0.2-0.4-0.3-0.6-0.2l-2.9,1.3c0.4-0.8,0.8-1.5,1.1-2.2l2-0.9c0.2-0.1,0.3-0.4,0.2-0.6
		c-0.1-0.2-0.4-0.3-0.6-0.2l-0.9,0.4c0.3-0.6,0.5-1,0.5-1c0.2-0.4,0.1-0.8-0.2-1c-0.3-0.1-0.7,0.1-0.8,0.5c0,0-0.2,0.5-0.6,1.2
		l-0.4-1.2c-0.1-0.2-0.3-0.4-0.6-0.3c-0.2,0.1-0.4,0.3-0.3,0.6l0.7,2.1c-0.3,0.7-0.7,1.4-1.1,2.2l-0.9-2.7c-0.1-0.2-0.3-0.4-0.6-0.3
		c-0.2,0.1-0.4,0.3-0.3,0.6l1.2,3.5c-0.3,0.5-0.5,1-0.7,1.5c-1.7-1.2-2.4-3.5-1.5-5.6c0.7-1.6,1.3-2.1,3-2.8c0.6-0.3,2.9-1.4,4-1.9
		c0.4,1.2,1.1,3.6,1.3,4.3C50.4,58.8,50.5,59.6,49.8,61.2z"/>
	<path class="st0" d="M63.1,71.6c-0.5,0-1-0.3-1.2-0.8c-0.5-1.1-13.3-27.5-13.3-35c0-8,6.5-14.5,14.5-14.5s14.5,6.5,14.5,14.5
		c0,7.5-12.7,33.9-13.3,35C64.1,71.3,63.7,71.6,63.1,71.6z M63.1,24.1c-6.5,0-11.7,5.3-11.7,11.7C51.4,41,59,58.2,63.1,67
		c4.2-8.8,11.7-26,11.7-31.2C74.9,29.4,69.6,24.1,63.1,24.1z"/>
	<g>
		<path class="st0" d="M55.9,61.8c-0.6-1.3-1.1-2.6-1.7-4c-0.3,0-0.7,0-1,0c0.2,1.3,0.2,2.4-0.4,3.9C53.8,61.7,54.8,61.7,55.9,61.8z
			"/>
		<path class="st0" d="M72.8,60.3c-0.5-0.1-1-0.3-1.6-0.4c-0.6,1.3-1.1,2.5-1.6,3.6c6.4,1.4,10,3.3,10,4.6c0,0.5-1.4,2.4-7.8,4.1
			C66,73.9,58.3,74.8,50,74.8c-18.3,0-29.6-4.2-29.6-6.6c0-0.5,1.4-2.4,7.8-4.1c1.1-0.3,2.2-0.5,3.3-0.8c-0.2-0.8-0.2-1.6-0.1-2.6
			c0-0.2,0.1-0.7,0.1-1.3c-1.5,0.3-3,0.6-4.4,1C20,62.3,16.4,65,16.4,68.3s3.6,6,10.7,7.9c6.1,1.7,14.2,2.6,22.8,2.6
			s16.7-0.9,22.8-2.6c7.1-1.9,10.7-4.6,10.7-7.9C83.5,64.9,79.9,62.2,72.8,60.3z"/>
	</g>
	<circle class="st0" cx="63.1" cy="36.3" r="7.2"/>
</g>
</svg>
