<?xml version="1.0" encoding="utf-8"?>
<!-- Generator: Adobe Illustrator 20.1.0, SVG Export Plug-In . SVG Version: 6.00 Build 0)  -->
<svg version="1.1" id="Layer_1" xmlns="http://www.w3.org/2000/svg" xmlns:xlink="http://www.w3.org/1999/xlink" x="0px" y="0px"
	 viewBox="0 0 100 100" style="enable-background:new 0 0 100 100;" xml:space="preserve">
<style type="text/css">
	.st0{fill:#14B68F;}
</style>
<path class="st0" d="M50,0C22.4,0,0,22.4,0,50s22.4,50,50,50s50-22.4,50-50S77.6,0,50,0z M50,35.2c-1.4,0-2.5,1.1-2.5,2.5v7.6
	l-3.3-3.6c-0.8-0.8-2-0.9-2.8-0.1c-0.8,0.7-0.9,2-0.1,2.8l6.2,6.8v8.5l-7.9-8.6c-0.8-0.8-2-0.9-2.8-0.1c-0.8,0.7-0.9,2-0.1,2.8
	l10.9,11.8v8.3c-9.7-1.2-17.3-9.6-17.3-19.6c0-7.6,1.7-10.6,7.1-16.6c2-2.2,9.1-10.5,12.7-14.7c3.6,4.2,10.7,12.5,12.7,14.7
	c5.4,5.9,7.1,9,7.1,16.6c0,10.1-7.6,18.4-17.3,19.6v-8.3l12.3-13.3c0.7-0.8,0.7-2.1-0.1-2.8c-0.8-0.7-2.1-0.7-2.8,0.1l-9.3,10.1
	v-8.5l6.2-6.8c0.7-0.8,0.7-2.1-0.1-2.8s-2.1-0.7-2.8,0.1l-3.3,3.6v-7.6C52.5,36.3,51.4,35.2,50,35.2z M52.5,93.6V79.5
	c12.8-1.3,22.8-12.1,22.8-25.2c0-9.4-2.5-13.7-8.5-20.3c-2.6-2.9-14.6-16.8-14.7-17c0-0.1-0.1-0.1-0.2-0.1c0,0-0.1-0.1-0.1-0.2
	c0,0,0,0-0.1,0c-0.1-0.1-0.2-0.1-0.2-0.2c-0.1,0-0.1-0.1-0.2-0.1c-0.1,0-0.2-0.1-0.3-0.1s-0.2-0.1-0.2-0.1c-0.1,0-0.2,0-0.3-0.1
	c-0.1,0-0.2,0-0.3,0s-0.2,0-0.3,0s-0.2,0-0.3,0s-0.2,0-0.3,0s-0.2,0-0.3,0.1c-0.1,0-0.2,0.1-0.2,0.1c-0.1,0-0.2,0.1-0.3,0.1
	s-0.1,0.1-0.2,0.1c-0.1,0.1-0.2,0.1-0.2,0.2c0,0,0,0-0.1,0s-0.1,0.1-0.1,0.2c0,0-0.1,0.1-0.2,0.1C47.6,17.1,35.6,31.1,33,34
	c-6,6.6-8.5,10.9-8.5,20.3c0,13.1,10,23.9,22.8,25.2v14.1C24.6,92.3,6.4,73.2,6.4,50C6.4,25.9,25.9,6.4,50,6.4S93.6,25.9,93.6,50
	C93.6,73.2,75.4,92.3,52.5,93.6z"/>
</svg>
