<?xml version="1.0" encoding="utf-8"?>
<!-- Generator: Adobe Illustrator 20.1.0, SVG Export Plug-In . SVG Version: 6.00 Build 0)  -->
<svg version="1.1" id="Layer_1" xmlns="http://www.w3.org/2000/svg" xmlns:xlink="http://www.w3.org/1999/xlink" x="0px" y="0px"
	 viewBox="0 0 100 100" style="enable-background:new 0 0 100 100;" xml:space="preserve">
<style type="text/css">
	.st0{fill:#14B68F;}
</style>
<g>
	<path class="st0" d="M66.1,58.3c3,0.6,3.3,0.8,3.4,3.8c0.3,10.4-7,17-15.1,17.5c-1.4,0.1-1.9,0.5-1.8,1.9c0.1,1.3,0,2.5,0,3.8
		c0,1.1-0.5,1.9-1.7,1.9s-1.6-0.8-1.6-1.8c-0.1-1.3-0.1-2.5,0-3.8c0.1-1.4-0.4-1.8-1.8-2c-2.4-0.3-4.9-0.7-7.2-1.6
		c-7.1-2.8-10.4-10.1-9.6-17.5c0.2-1.8,1.7-2,3.2-2.2c-0.3-0.5-0.5-0.9-0.7-1.3c-2.2-3.5-2.9-7.3-2.6-11.3c0.1-1.2,0.7-2.1,2-2.3
		c0.4,0,0.8-0.2,0.8-0.2c-0.9-2.6-1.9-5.2-2.6-7.8c-0.4-1.5-0.2-3.2-0.2-4.8c0-1.3,0.8-2.1,2.2-2.2c3-0.2,5.9,0.1,8.8,1.2
		c0.2-2.1,0.1-4.1,0.5-6c0.8-4.3,3.1-7.6,6.5-10.3c1.1-0.9,2-0.6,3,0.2c4.5,3.8,6.9,8.6,6.5,14.6c0,0.4,0,0.9,0,1
		c2.9-0.2,5.7-0.6,8.5-0.7c2-0.1,2.5,0.6,2.6,2.7c0.3,4.1-0.5,7.9-2.8,11.4c-0.1,0.2-0.2,0.4-0.3,0.7c0.4,0.1,0.8,0.2,1.1,0.2
		c1.4,0.2,2,1,2.1,2.3c0.3,4.2-0.4,8.1-2.8,11.7C66.3,57.7,66.2,57.9,66.1,58.3z M52.1,60.6c6.9,1.1,14.9-7,13-13.2
		C58.1,46.6,50.9,54,52.1,60.6z M50,17.6c-6.4,5.3-5.1,14.9,0.1,18.6C55.7,31.2,55.6,22,50,17.6z M47.8,45.7
		c0.9-7.3-6.9-14.9-13.2-13.1C33.8,39.5,40.7,46.4,47.8,45.7z M47.8,75.6c0.6-8.5-7.2-14-13.2-13.1C34,70.8,41.3,76.3,47.8,75.6z
		 M52.1,45.6c7.1,1,15-7.1,13.1-13.2C57.9,31.8,51.4,38.3,52.1,45.6z M47.8,60.6c0-0.2,0.1-0.3,0.1-0.5c0.3-6.7-5.7-12.9-12.4-12.8
		c-0.8,0-1.1,0.3-1,1.1c0.2,1.2,0.3,2.5,0.7,3.7C36.9,57.6,42.6,61.4,47.8,60.6z M65.3,62.4C58,61.7,51,68.8,52.2,75.6
		C59,76.7,66.3,69.4,65.3,62.4z"/>
	<path class="st0" d="M100,50.1c0-0.4-0.2-0.8-0.5-1.1l-4.3-3.7l3.3-4.5c0.2-0.3,0.3-0.8,0.3-1.2c-0.1-0.4-0.3-0.8-0.7-1l-4.7-2.8
		l2.2-5c0.2-0.4,0.2-0.8,0-1.2s-0.5-0.7-0.9-0.8l-5.2-1.7l1.2-5.4c0.1-0.4,0-0.9-0.3-1.2c-0.4-0.4-0.8-0.6-1.2-0.6l-5.5-0.6V14
		c0-0.4-0.2-0.8-0.5-1.1s-0.7-0.4-1.2-0.4l-5.5,0.6l-1.2-5.4c-0.1-0.4-0.3-0.8-0.7-1c-0.4-0.2-0.8-0.3-1.2-0.1l-5.2,1.7l-2.2-5
		c-0.2-0.4-0.5-0.7-0.9-0.8s-0.8-0.1-1.2,0.1l-4.7,2.8L56.1,1c-0.2-0.3-0.6-0.6-1.1-0.6c-0.4,0-0.8,0.1-1.2,0.4l-4,3.5l-4.1-3.7
		c-0.3-0.3-0.7-0.4-1.2-0.4c-0.4,0-0.8,0.3-1.1,0.6l-3.2,4.5l-4.7-2.8c-0.4-0.2-0.8-0.3-1.2-0.1c-0.4,0.1-0.7,0.4-0.9,0.8l-2.2,5
		L26,6.6c-0.4-0.1-0.8-0.1-1.2,0.1c-0.4,0.2-0.6,0.6-0.7,1L23.2,13l-5.5-0.6c-0.4,0-0.8,0.1-1.2,0.4c-0.3,0.3-0.5,0.7-0.5,1.1v5.5
		l-5.4,0.7c-0.4,0-0.8,0.3-1.1,0.6c-0.3,0.3-0.3,0.8-0.3,1.2l1.2,5.4L5.1,29c-0.4,0.1-0.7,0.4-0.9,0.8C4,30.2,4,30.6,4.2,31l2.2,5
		l-4.7,2.8c-0.4,0.2-0.6,0.6-0.7,1s0,0.8,0.3,1.2l3.3,4.5L0.5,49C0.2,49.3,0,49.7,0,50.1s0.2,0.8,0.5,1.1l4.1,3.7l-3.3,4.5
		C1.1,59.6,1,60.1,1,60.5c0.1,0.4,0.3,0.8,0.7,1l4.7,2.8l-2,5c-0.2,0.4-0.2,0.8,0,1.2s0.5,0.7,0.9,0.8l5.2,1.7l-1.2,5.4
		c-0.1,0.4,0,0.9,0.3,1.2c0.2,0.3,0.6,0.6,1.1,0.6l5.5,0.6v5.5c0,0.4,0.2,0.8,0.5,1.1c0.3,0.3,0.7,0.4,1.2,0.4l5.5-0.6l1.2,5.4
		c0.1,0.4,0.3,0.8,0.7,1c0.4,0.2,0.8,0.3,1.2,0.1l5.2-1.7l2.2,5c0.2,0.4,0.5,0.7,0.9,0.8c0.4,0.1,0.8,0.1,1.2-0.1l4.7-2.8l3.2,4.5
		c0.2,0.3,0.6,0.6,1.1,0.6c0.4,0,0.8-0.1,1.2-0.4l4.1-3.7l4.1,3.7c0.3,0.3,0.6,0.4,1,0.4h0.2c0.4,0,0.8-0.3,1.1-0.6l3.2-4.5l4.7,2.8
		c0.4,0.2,0.8,0.3,1.2,0.1c0.4-0.1,0.7-0.4,0.9-0.8l2.2-5l5.2,1.7c0.4,0.1,0.8,0.1,1.2-0.1c0.4-0.2,0.6-0.6,0.7-1l1.2-5.4l5.5,0.6
		c0.4,0,0.8-0.1,1.2-0.4c0.3-0.3,0.5-0.7,0.5-1.1v-5.5l5.5-0.6c0.4,0,0.8-0.3,1.1-0.6c0.3-0.3,0.3-0.8,0.3-1.2L89.7,73l5.2-1.7
		c0.4-0.1,0.7-0.4,0.9-0.8c0.2-0.4,0.2-0.8,0-1.2l-2.2-5l4.7-2.8c0.4-0.2,0.6-0.6,0.7-1s0-0.8-0.3-1.2l-3.3-4.5l4.1-3.7
		C99.8,50.9,100,50.5,100,50.1z M50,90.6c-9.3,0-17.8-3.1-24.7-8.4l7.3-7.4c0.2-0.2,0.2-0.4,0-0.6c-2-2.6-3.3-5.8-3.7-9.3
		c0-0.2-0.1-0.3-0.3-0.4s-0.3,0-0.5,0.1L18,75c-5.4-6.9-8.6-15.6-8.6-25C9.4,27.6,27.6,9.4,50,9.4c9.3,0,17.8,3.1,24.7,8.4L66,26.5
		c-0.1,0.1-0.1,0.3-0.1,0.5c0.1,0.2,0.3,0.3,0.4,0.3c3,0,3.5,1.8,3.6,3.8c0.1,1.8,0,3.5-0.2,5.1c0,0.2,0.1,0.4,0.2,0.5
		c0.1,0,0.1,0.1,0.2,0.1s0.2,0,0.3-0.1L82,25c5.4,6.9,8.6,15.6,8.6,25C90.6,72.4,72.4,90.6,50,90.6z"/>
</g>
</svg>
