<?xml version="1.0" encoding="utf-8"?>
<!-- Generator: Adobe Illustrator 20.1.0, SVG Export Plug-In . SVG Version: 6.00 Build 0)  -->
<svg version="1.1" id="Layer_1" xmlns="http://www.w3.org/2000/svg" xmlns:xlink="http://www.w3.org/1999/xlink" x="0px" y="0px"
	 viewBox="0 0 100 100" style="enable-background:new 0 0 100 100;" xml:space="preserve">
<style type="text/css">
	.st0{fill:#14B68F;}
</style>
<g>
	<path class="st0" d="M50,100C22.4,100,0,77.6,0,50S22.4,0,50,0s50,22.4,50,50S77.6,100,50,100z M50,6.4C25.9,6.4,6.4,25.9,6.4,50
		S25.9,93.6,50,93.6S93.6,74.1,93.6,50S74.1,6.4,50,6.4z"/>
	<path class="st0" d="M78.8,34.2c-0.9-2.8-5-16.1-5-16.3c0-0.1,0-0.1-0.1-0.1c0,0,0-0.1-0.1-0.2l0,0c0-0.1-0.1-0.1-0.1-0.2
		s-0.1-0.1-0.1-0.2s-0.1-0.1-0.1-0.2l-0.1-0.1c-0.1,0-0.1-0.1-0.2-0.1s-0.1-0.1-0.2-0.1s-0.1-0.1-0.2-0.1s-0.1-0.1-0.2-0.1
		s-0.1,0-0.2,0s-0.1,0-0.2,0s-0.1,0-0.2,0s-0.1,0-0.2,0s-0.1,0-0.2,0s-0.2,0-0.2,0l0,0c-0.1,0-0.1,0-0.1,0.1c-0.1,0-0.1,0-0.2,0.1
		S58.2,22.8,55.5,24c-6.2,2.8-9.2,5-12.1,11.5c-1.1,2.4-1.6,5-1.6,7.5c-2.3-2.7-4.5-3.6-8.3-4.4c-1.9-0.4-10.9-2.7-11-2.7h-0.1h-0.1
		l0,0c-0.1,0-0.1,0-0.2,0H22h-0.1h-0.1c0,0-0.1,0-0.1,0.1c0,0-0.1,0-0.1,0.1s-0.1,0-0.1,0.1s-0.1,0-0.1,0.1l-0.1,0.1l-0.1,0.1
		c0,0,0,0.1-0.1,0.1L21,36.7v0.1c0,0,0,0.1-0.1,0.1l0,0V37v0.1c0,0.1-0.9,9.3-1.1,11.2c-0.5,4.4-0.3,6.9,2.4,10.8
		c4.1,5.7,12,7.1,17.7,3c0.1-0.1,0.3-0.2,0.4-0.3c2.4,2.9,4.4,5.2,5,6c0,0.1,0,0.1,0,0.2v13.2c0,1.4,1.1,2.5,2.4,2.5
		s2.4-1.1,2.4-2.5V67.9c0-0.1,0-0.2-0.1-0.3c0.8-1.9,2-4.3,3.3-7c9.7,4.2,21-0.2,25.2-9.8C81.3,44.3,80.9,40.6,78.8,34.2z
		 M40.2,57.9l-2.4-2.8l1.1-8.5c0.1-0.5-0.3-1.1-0.9-1.1s-1,0.2-1,0.8L36.1,53l-2.5-3l0.6-4.9c0.1-0.5-0.3-1.1-0.9-1.1
		s-1.1,0.3-1.1,0.9L31.8,48l-2.7-3.2c-0.6-0.9-1.6-1.3-2.2-0.9s-0.5,1.4,0.1,2.3c0,0,0.8,0.9,2,2.4l-1.6-0.3
		c-0.5-0.1-1.1,0.2-1.2,0.8c-0.1,0.5,0.2,1.1,0.8,1.2l4.1,0.9c0.9,1.1,2,2.3,3.1,3.6l-6-1.3c-0.5-0.1-1.1,0.2-1.2,0.8
		c-0.1,0.5,0.2,1.1,0.8,1.2l8.5,1.8c0.7,0.8,1.4,1.6,2.1,2.4c-0.1,0.1-0.1,0.1-0.2,0.2c-4.5,3.2-10.7,2.1-13.9-2.4
		c-2.2-3.1-2.4-4.8-1.9-8.8c0.2-1.5,0.7-6.9,0.9-9.7c2.7,0.7,8,2,9.5,2.3c3.9,0.9,5.5,1.6,7.7,4.7C43.2,49.6,42.9,54.5,40.2,57.9z
		 M47.3,65.4c-0.2,0.3-0.3,0.5-0.3,0.5l-0.3-0.4L42,60c1.6-1.8,2.6-4,3-6.3c1.4,2.1,3.2,3.9,5.4,5.4C49,62.1,47.8,64.4,47.3,65.4z
		 M74.7,49.1c-3.3,7.5-12,10.9-19.6,7.8c0.8-1.6,1.7-3.3,2.5-5l13.1-5.7c0.8-0.3,1.1-1.2,0.8-2c-0.3-0.8-1.2-1.1-2-0.8l-9.7,4.2
		c1.3-2.6,2.6-5,3.7-7.1l6.5-2.8c0.8-0.3,1.1-1.2,0.8-2c-0.3-0.8-1.2-1.1-2-0.8l-3.1,1.3c1.1-2,1.7-3.3,1.7-3.3
		c0.6-1.3,0.3-2.7-0.7-3.2c-1-0.4-2.2,0.3-2.8,1.6c0,0-0.7,1.5-1.9,3.8l-1.3-3.9c-0.3-0.8-1.1-1.2-1.9-0.9c-0.8,0.3-1.2,1.1-0.9,1.9
		l2.3,6.8c-1.1,2.2-2.3,4.7-3.6,7.3l-3-8.8c-0.3-0.8-1.1-1.2-1.9-0.9c-0.8,0.3-1.2,1.1-0.9,1.9l4,11.6c-0.8,1.7-1.7,3.4-2.5,5
		c-5.7-4-8-11.7-5.1-18.3c2.3-5.2,4.4-6.9,10-9.3c2.1-0.9,9.5-4.5,13.3-6.3c1.2,4,3.6,11.9,4.3,14.1C76.7,41.2,77,43.9,74.7,49.1z"
		/>
</g>
</svg>
